<svg width="38" height="40" viewBox="0 0 38 40" fill="none" xmlns="http://www.w3.org/2000/svg">
<g clip-path="url(#clip0_226_468)">
<path d="M30.3125 11.5625H9.6875C9.52174 11.5625 9.36277 11.6283 9.24556 11.7456C9.12835 11.8628 9.0625 12.0217 9.0625 12.1875C9.0625 12.3533 9.12835 12.5122 9.24556 12.6294C9.36277 12.7467 9.52174 12.8125 9.6875 12.8125H30.3125C30.4783 12.8125 30.6372 12.7467 30.7544 12.6294C30.8717 12.5122 30.9375 12.3533 30.9375 12.1875C30.9375 12.0217 30.8717 11.8628 30.7544 11.7456C30.6372 11.6283 30.4783 11.5625 30.3125 11.5625ZM30.9375 15.3125C30.9375 15.1468 30.8716 14.9878 30.7544 14.8706C30.6372 14.7534 30.4783 14.6875 30.3125 14.6875H9.6875C9.52174 14.6875 9.36277 14.7534 9.24556 14.8706C9.12835 14.9878 9.0625 15.1468 9.0625 15.3125C9.0625 15.4783 9.12835 15.6373 9.24556 15.7545C9.36277 15.8717 9.52174 15.9375 9.6875 15.9375H30.3125C30.4783 15.9375 30.6372 15.8717 30.7544 15.7545C30.8716 15.6373 30.9375 15.4783 30.9375 15.3125ZM19.0625 18.4376C19.0625 18.2718 18.9966 18.1128 18.8794 17.9956C18.7622 17.8784 18.6033 17.8126 18.4375 17.8126H9.6875C9.52174 17.8126 9.36277 17.8784 9.24556 17.9956C9.12835 18.1128 9.0625 18.2718 9.0625 18.4376C9.0625 18.6033 9.12835 18.7623 9.24556 18.8795C9.36277 18.9967 9.52174 19.0626 9.6875 19.0626H18.4375C18.6033 19.0626 18.7622 18.9967 18.8794 18.8795C18.9966 18.7623 19.0625 18.6033 19.0625 18.4376ZM9.0625 24.3751C9.0625 24.8696 9.20913 25.3529 9.48384 25.764C9.75854 26.1752 10.149 26.4956 10.6058 26.6848C11.0626 26.874 11.5653 26.9235 12.0502 26.8271C12.5352 26.7306 12.9806 26.4925 13.3303 26.1429C13.6799 25.7932 13.918 25.3478 14.0145 24.8628C14.1109 24.3779 14.0614 23.8752 13.8722 23.4184C13.683 22.9616 13.3625 22.5711 12.9514 22.2964C12.5403 22.0217 12.057 21.8751 11.5625 21.8751C10.8997 21.8758 10.2642 22.1395 9.79556 22.6082C9.32688 23.0768 9.06325 23.7123 9.0625 24.3751ZM12.8125 24.3751C12.8125 24.6223 12.7392 24.864 12.6018 25.0696C12.4645 25.2751 12.2693 25.4354 12.0409 25.53C11.8124 25.6246 11.5611 25.6493 11.3186 25.6011C11.0762 25.5529 10.8534 25.4338 10.6786 25.259C10.5038 25.0842 10.3847 24.8615 10.3365 24.619C10.2883 24.3765 10.313 24.1252 10.4077 23.8968C10.5023 23.6684 10.6625 23.4731 10.868 23.3358C11.0736 23.1984 11.3153 23.1251 11.5625 23.1251C11.894 23.1251 12.212 23.2568 12.4464 23.4912C12.6808 23.7257 12.8125 24.0436 12.8125 24.3751Z" fill="#B66433" fill-opacity="0.95"/>
<path d="M38.125 3.125H1.875C1.37788 3.12555 0.901284 3.32327 0.549771 3.67478C0.198258 4.0263 0.000540964 4.5029 0 5.00002L0 30.6252C0.000540964 31.1224 0.198258 31.599 0.549771 31.9505C0.901284 32.302 1.37788 32.4997 1.875 32.5003H20.8119L21.7042 31.2503H1.875C1.70931 31.25 1.55046 31.1841 1.4333 31.067C1.31613 30.9498 1.25022 30.791 1.25 30.6253V5.00002C1.25022 4.83432 1.31613 4.67548 1.4333 4.55831C1.55046 4.44115 1.70931 4.37523 1.875 4.37502H38.125C38.2907 4.37523 38.4495 4.44115 38.5667 4.55831C38.6839 4.67548 38.7498 4.83432 38.75 5.00002V30.6252C38.7498 30.7909 38.6839 30.9498 38.5667 31.067C38.4495 31.1841 38.2907 31.25 38.125 31.2502H33.921L34.8134 32.5002H38.125C38.6221 32.4997 39.0987 32.302 39.4502 31.9505C39.8017 31.599 39.9995 31.1224 40 30.6252V5.00002C39.9995 4.5029 39.8017 4.0263 39.4502 3.67478C39.0987 3.32327 38.6221 3.12555 38.125 3.125Z" fill="#B66433" fill-opacity="0.95"/>
<path d="M25.9087 33.5435L24.8172 35.0533L24.6933 34.442C24.6663 34.2308 24.5595 34.0379 24.3948 33.903C24.3042 33.829 24.1995 33.7743 24.0871 33.7423C23.9746 33.7102 23.8568 33.7015 23.7408 33.7166L22.9589 33.7953L24.1492 32.1278C23.7273 32.0427 23.329 31.8665 22.9822 31.6115L21.4102 33.8136C21.3136 33.945 21.2583 34.1021 21.2512 34.2651C21.2442 34.428 21.2859 34.5893 21.3708 34.7285C21.457 34.8691 21.5823 34.9817 21.7313 35.0524C21.8803 35.1232 22.0466 35.1491 22.2101 35.1271L23.5296 34.994L23.7622 36.1412C23.7815 36.3025 23.8478 36.4546 23.9529 36.5785C24.058 36.7024 24.1973 36.7926 24.3533 36.8379C24.4346 36.8626 24.5192 36.8751 24.6042 36.8752C24.7386 36.8752 24.8712 36.8436 24.9911 36.783C25.1111 36.7224 25.2151 36.6343 25.2948 36.526L27.5437 33.4153C27.2158 33.5483 26.866 33.6192 26.5121 33.6244C26.3083 33.6238 26.1055 33.5966 25.9087 33.5435ZM32.6427 31.6115C32.2959 31.8664 31.8976 32.0426 31.4756 32.1278L32.666 33.7953L31.8841 33.7166C31.7682 33.7014 31.6503 33.7101 31.5379 33.7422C31.4254 33.7743 31.3207 33.829 31.2301 33.903C31.0654 34.0379 30.9586 34.2308 30.9317 34.442L30.8078 35.0529L29.7141 33.5403C29.17 33.6751 28.5969 33.6307 28.0801 33.4136L30.3332 36.5303C30.4128 36.6376 30.5164 36.7247 30.6358 36.7846C30.7551 36.8445 30.8869 36.8755 31.0205 36.8752C31.1056 36.8751 31.1902 36.8626 31.2716 36.8379C31.4277 36.7926 31.5669 36.7024 31.672 36.5785C31.7772 36.4546 31.8435 36.3025 31.8628 36.1412L32.0953 34.9941L33.4149 35.1271C33.5784 35.1493 33.7448 35.1234 33.8938 35.0526C34.0428 34.9818 34.168 34.8692 34.2541 34.7285C34.3388 34.5905 34.3806 34.4305 34.3744 34.2687C34.3681 34.1069 34.3141 33.9505 34.219 33.8194L32.6427 31.6115ZM29.4546 32.3198C29.8647 32.1412 30.1885 31.8092 30.3567 31.3948C30.4142 31.2753 30.4848 31.1626 30.5673 31.0588C30.6941 31.01 30.8261 30.976 30.9607 30.9575C31.1833 30.9631 31.4041 30.9147 31.6039 30.8163C31.8037 30.7179 31.9767 30.5725 32.108 30.3926C32.2393 30.2127 32.325 30.0036 32.3577 29.7832C32.3904 29.5629 32.3692 29.3379 32.2958 29.1276C32.2716 28.9922 32.2632 28.8545 32.2708 28.7171C32.3426 28.6092 32.4261 28.5095 32.5198 28.4199C32.8651 28.1296 33.0825 27.7152 33.125 27.266C33.0825 26.8169 32.8651 26.4024 32.5198 26.1121C32.4268 26.023 32.3436 25.9242 32.2717 25.8173C32.2632 25.6792 32.2713 25.5406 32.2958 25.4044C32.4031 24.9759 32.3364 24.5223 32.1103 24.1428C31.8172 23.8089 31.4039 23.6046 30.9607 23.5746C30.8268 23.556 30.6955 23.5224 30.5691 23.4745C30.4857 23.3704 30.4143 23.2571 30.3564 23.1369C30.1884 22.7225 29.8645 22.3905 29.4543 22.2123C29.0274 22.1164 28.5798 22.1928 28.2089 22.425C28.0837 22.4926 27.9505 22.5442 27.8125 22.5785C27.6744 22.5442 27.5412 22.4926 27.4161 22.425C27.0449 22.193 26.5974 22.1166 26.1703 22.2123C25.7603 22.3908 25.4364 22.7229 25.2682 23.1373C25.2108 23.2568 25.1402 23.3695 25.0577 23.4733C24.9309 23.522 24.7989 23.556 24.6643 23.5746C24.2211 23.6045 23.8078 23.8087 23.5147 24.1425C23.2886 24.5221 23.2219 24.9758 23.3291 25.4044C23.3533 25.5398 23.3617 25.6776 23.3542 25.8149C23.2824 25.9228 23.1988 26.0225 23.1051 26.1121C22.7598 26.4024 22.5425 26.8169 22.5 27.266C22.5425 27.7152 22.7598 28.1296 23.1051 28.4199C23.1981 28.509 23.2813 28.6078 23.3532 28.7147C23.3617 28.8528 23.3536 28.9914 23.3291 29.1276C23.2558 29.3379 23.2346 29.5629 23.2674 29.7832C23.3001 30.0035 23.3858 30.2126 23.5171 30.3925C23.6484 30.5724 23.8213 30.7178 24.0211 30.8162C24.2209 30.9146 24.4416 30.9631 24.6643 30.9575C24.7981 30.976 24.9295 31.0096 25.0558 31.0576C25.1393 31.1616 25.2106 31.2749 25.2685 31.3951C25.4366 31.8095 25.7605 32.1415 26.1706 32.3198C26.2818 32.3558 26.398 32.3741 26.5149 32.3738C26.8313 32.3526 27.1391 32.2615 27.416 32.1071C27.5412 32.0394 27.6744 31.9879 27.8125 31.9536C27.9505 31.9879 28.0837 32.0394 28.2089 32.1071C28.58 32.339 29.0276 32.4155 29.4546 32.3198ZM26.8826 30.9767C26.7774 31.0296 26.6688 31.0755 26.5576 31.1143C26.4866 31.0133 26.4227 30.9075 26.3666 30.7975C26.2508 30.4963 26.0502 30.2351 25.7891 30.0455C25.528 29.8559 25.2176 29.746 24.8953 29.7291C24.7746 29.7095 24.6554 29.6815 24.5386 29.6455C24.5405 29.5249 24.5507 29.4046 24.5691 29.2854C24.6319 28.9685 24.6228 28.6415 24.5422 28.3286C24.4258 28.0355 24.2444 27.7726 24.0118 27.5596C23.9203 27.4687 23.8363 27.3705 23.7607 27.266C23.8363 27.1615 23.9203 27.0633 24.0118 26.9724C24.2444 26.7594 24.4258 26.4965 24.5422 26.2034C24.6228 25.8904 24.6319 25.5633 24.5691 25.2463C24.5508 25.1271 24.5406 25.0068 24.5386 24.8862C24.6555 24.8504 24.7747 24.8226 24.8953 24.8029C25.2176 24.7863 25.5282 24.6765 25.7894 24.4868C26.0505 24.2972 26.251 24.0358 26.3666 23.7344C26.4227 23.6245 26.4865 23.5186 26.5576 23.4177C26.6688 23.4564 26.7774 23.5024 26.8826 23.5553C27.16 23.7336 27.4827 23.8284 27.8125 23.8284C28.1422 23.8284 28.465 23.7336 28.7423 23.5553C28.8476 23.5024 28.9561 23.4564 29.0673 23.4177C29.1384 23.5186 29.2022 23.6245 29.2584 23.7344C29.3742 24.0356 29.5747 24.2969 29.8358 24.4865C30.0969 24.6761 30.4074 24.786 30.7296 24.8029C30.8503 24.8225 30.9695 24.8505 31.0864 24.8865C31.0845 25.0071 31.0743 25.1274 31.0559 25.2466C30.993 25.5635 31.0022 25.8905 31.0827 26.2034C31.1992 26.4965 31.3805 26.7594 31.6131 26.9724C31.7047 27.0633 31.7887 27.1615 31.8643 27.266C31.7887 27.3705 31.7047 27.4687 31.6131 27.5596C31.3805 27.7726 31.1992 28.0355 31.0827 28.3286C31.0022 28.6416 30.993 28.9687 31.0559 29.2857C31.0741 29.4049 31.0843 29.5252 31.0864 29.6458C30.9695 29.6816 30.8503 29.7094 30.7296 29.7291C30.4073 29.7457 30.0967 29.8555 29.8356 30.0452C29.5744 30.2348 29.3739 30.4962 29.2584 30.7975C29.2023 30.9075 29.1384 31.0134 29.0673 31.1143C28.9561 31.0755 28.8476 31.0296 28.7423 30.9767C28.465 30.7984 28.1422 30.7035 27.8125 30.7035C27.4827 30.7035 27.16 30.7984 26.8826 30.9767Z" fill="#B66433" fill-opacity="0.95"/>
<path d="M30 27.2656C30 26.833 29.8717 26.41 29.6313 26.0503C29.391 25.6906 29.0493 25.4102 28.6496 25.2446C28.2499 25.0791 27.8101 25.0358 27.3857 25.1202C26.9614 25.2046 26.5716 25.4129 26.2657 25.7188C25.9598 26.0248 25.7514 26.4145 25.667 26.8389C25.5826 27.2632 25.6259 27.703 25.7915 28.1028C25.9571 28.5025 26.2375 28.8441 26.5972 29.0845C26.9569 29.3248 27.3799 29.4531 27.8125 29.4531C28.3924 29.4524 28.9484 29.2217 29.3585 28.8116C29.7686 28.4016 29.9993 27.8456 30 27.2656ZM27.8125 28.2031C27.6271 28.2031 27.4458 28.1481 27.2917 28.0451C27.1375 27.9421 27.0173 27.7957 26.9464 27.6244C26.8754 27.4531 26.8568 27.2646 26.893 27.0827C26.9292 26.9009 27.0185 26.7338 27.1496 26.6027C27.2807 26.4716 27.4477 26.3823 27.6296 26.3461C27.8115 26.3099 28 26.3285 28.1713 26.3995C28.3426 26.4704 28.489 26.5906 28.592 26.7448C28.695 26.8989 28.75 27.0802 28.75 27.2656C28.7497 27.5142 28.6509 27.7525 28.4751 27.9282C28.2994 28.104 28.0611 28.2028 27.8125 28.2031Z" fill="#B66433" fill-opacity="0.95"/>
<path d="M36.25 30.0002C36.5814 29.9999 36.8992 29.8681 37.1335 29.6337C37.3679 29.3994 37.4997 29.0816 37.5 28.7502V6.875C37.4997 6.54358 37.3679 6.22583 37.1335 5.99148C36.8992 5.75713 36.5814 5.62533 36.25 5.625H3.75C3.41858 5.62533 3.10083 5.75713 2.86648 5.99148C2.63213 6.22583 2.50033 6.54358 2.5 6.875V28.7502C2.50033 29.0816 2.63213 29.3994 2.86648 29.6337C3.10083 29.8681 3.41858 29.9999 3.75 30.0002H22.0648C22.0316 29.7147 22.0327 29.4263 22.0682 29.1411C21.9545 29.0173 21.8483 28.8868 21.7503 28.7502H3.75V11.7432L8.56689 6.92627C8.58177 6.90995 8.59574 6.89283 8.60877 6.875H31.3912C31.4042 6.89283 31.4182 6.90995 31.4331 6.92627L36.2502 11.7434L36.2509 28.7502H33.8746C33.7766 28.8867 33.6705 29.0173 33.5568 29.1411C33.5923 29.4263 33.5934 29.7147 33.5602 30.0002L36.25 30.0002ZM3.75 9.97561V6.87499H6.85059L3.75 9.97561ZM33.1494 6.87499H36.25L36.2501 9.97573L33.1494 6.87499Z" fill="#B66433" fill-opacity="0.95"/>
</g>
<defs>
<clipPath id="clip0_226_468">
<rect width="38" height="40" fill="white"/>
</clipPath>
</defs>
</svg>
