<svg width="55" height="55" viewBox="0 0 55 55" fill="none" xmlns="http://www.w3.org/2000/svg">
<path d="M55 20.625C54.9994 20.2301 54.9055 19.8419 54.7271 19.4975L45.174 1.16417C44.9896 0.810697 44.7219 0.516642 44.3981 0.312091C44.0744 0.10754 43.7063 -0.000164147 43.3315 1.87774e-07H11.6685C11.2937 -0.000164147 10.9256 0.10754 10.6019 0.312091C10.2781 0.516642 10.0104 0.810697 9.82596 1.16417L0.272884 19.4975C0.0945399 19.8419 0.000593566 20.2301 0 20.625C0.00467274 22.2269 0.39801 23.7993 1.14057 25.1845C1.88313 26.5698 2.94882 27.7192 4.23077 28.5175V50.4167C4.23077 51.6322 4.67651 52.798 5.46993 53.6576C6.26336 54.5171 7.33947 55 8.46154 55H20.9C22.0221 55 23.0982 54.5171 23.8916 53.6576C24.685 52.798 25.1308 51.6322 25.1308 50.4167V44.2131C25.1112 43.5444 25.3141 42.8903 25.7023 42.37C26.0906 41.8497 26.6385 41.4977 27.2462 41.3783C27.5767 41.3405 27.911 41.3782 28.2272 41.4892C28.5435 41.6002 28.8347 41.7819 29.082 42.0226C29.3292 42.2633 29.5271 42.5575 29.6627 42.8863C29.7984 43.2151 29.8687 43.5711 29.8692 43.9312V50.4167C29.8692 51.6322 30.315 52.798 31.1084 53.6576C31.9018 54.5171 32.9779 55 34.1 55H46.5385C47.6605 55 48.7366 54.5171 49.5301 53.6576C50.3235 52.798 50.7692 51.6322 50.7692 50.4167V28.5175C52.0512 27.7192 53.1169 26.5698 53.8594 25.1845C54.602 23.7993 54.9953 22.2269 55 20.625ZM50.7396 21.1704C50.6122 22.3312 50.0801 23.3954 49.2523 24.1453C48.4245 24.8951 47.3634 25.2739 46.2863 25.2043C45.2091 25.1346 44.1973 24.6217 43.4577 23.7704C42.7181 22.9192 42.3067 21.794 42.3077 20.625C42.2955 20.5181 42.2757 20.4124 42.2485 20.3088C42.2488 20.2059 42.2417 20.1033 42.2273 20.0017L38.206 4.58333H42.0962L50.7396 21.1704ZM21.1898 4.58333H25.3846V20.625C25.3405 21.7872 24.8902 22.8877 24.1249 23.7035C23.3597 24.5194 22.3367 24.9895 21.2634 25.0186C20.1901 25.0478 19.1467 24.6337 18.3447 23.8605C17.5426 23.0872 17.042 22.0125 16.9442 20.8542L21.1898 4.58333ZM29.6154 4.58333H33.8102L38.0558 20.8542C37.958 22.0125 37.4573 23.0872 36.6553 23.8605C35.8533 24.6337 34.8099 25.0478 33.7366 25.0186C32.6633 24.9895 31.6403 24.5194 30.875 23.7035C30.1098 22.8877 29.6595 21.7872 29.6154 20.625V4.58333ZM12.9038 4.58333H16.794L12.7748 20.0017C12.7604 20.1033 12.7533 20.2059 12.7537 20.3088C12.7257 20.4123 12.7052 20.518 12.6923 20.625C12.6933 21.794 12.2819 22.9192 11.5423 23.7704C10.8027 24.6217 9.79085 25.1346 8.71371 25.2043C7.63656 25.2739 6.57554 24.8951 5.74772 24.1453C4.91989 23.3954 4.38783 22.3312 4.26038 21.1704L12.9038 4.58333ZM46.5385 50.4167H34.1V43.9312C34.0989 42.9311 33.9042 41.9424 33.5284 41.0289C33.1526 40.1154 32.6041 39.2974 31.9183 38.6279C31.2325 37.9584 30.4247 37.4522 29.547 37.142C28.6694 36.8318 27.7414 36.7245 26.8231 36.8271C25.1713 37.0604 23.6559 37.9421 22.5642 39.3052C21.4725 40.6682 20.8803 42.4178 20.9 44.2223V50.4167H8.46154V29.7917C9.66269 29.7923 10.8501 29.5153 11.9445 28.979C13.0389 28.4427 14.0151 27.6596 14.8077 26.6819C15.6 27.6634 16.5778 28.4489 17.6748 28.9854C18.7718 29.5219 19.9623 29.7967 21.1659 29.7913C22.3695 29.7858 23.5579 29.5003 24.6507 28.9539C25.7436 28.4076 26.7153 27.6132 27.5 26.6246C28.2847 27.6132 29.2564 28.4076 30.3493 28.9539C31.4421 29.5003 32.6305 29.7858 33.8341 29.7913C35.0377 29.7967 36.2282 29.5219 37.3252 28.9854C38.4222 28.4489 39.4 27.6634 40.1923 26.6819C40.9849 27.6596 41.9611 28.4427 43.0555 28.979C44.1499 29.5153 45.3373 29.7923 46.5385 29.7917V50.4167Z" fill="white"/>
</svg>
