<svg width="60" height="60" viewBox="0 0 60 60" fill="none" xmlns="http://www.w3.org/2000/svg">
<path d="M58.9108 57.8315H57.1038V18.6182L58.3543 19.3699C58.5277 19.4784 58.7229 19.5217 58.9108 19.5217C59.2795 19.5217 59.6409 19.3338 59.8433 18.9941C60.1541 18.4809 59.9879 17.8159 59.4747 17.505L30.5614 0.157215C30.2216 -0.0524049 29.7879 -0.0524049 29.4482 0.157215L0.534896 17.505C0.0216848 17.8159 -0.144567 18.4809 0.166251 18.9941C0.477069 19.5073 1.14208 19.6735 1.65529 19.3627L2.90579 18.611V57.8315H1.08425C0.484298 57.8315 0 58.3158 0 58.9158C0 59.5157 0.484298 60 1.08425 60H3.97558H56.0195H58.9108C59.5108 60 59.9951 59.5157 59.9951 58.9158C59.9951 58.3158 59.5108 57.8315 58.9108 57.8315ZM13.7338 52.0489H46.2613V57.8315H13.7338V52.0489ZM48.4298 57.8315V51.6875V47.2783C48.4298 45.5218 47.0058 44.0978 45.2493 44.0978H21.9018C22.6463 43.4979 23.1379 42.5943 23.1379 41.5679C23.1379 39.7753 21.6777 38.3152 19.8851 38.3152H15.5481C14.8831 38.3152 14.2615 38.5176 13.741 38.8646V31.4484C13.741 30.8484 13.2567 30.3641 12.6568 30.3641C12.0568 30.3641 11.5725 30.8484 11.5725 31.4484V57.8315H5.06706V17.3171L29.9975 2.35461L54.9353 17.3171V57.8315H48.4298ZM39.033 15.5462V28.5571C39.033 28.7594 38.8739 28.9185 38.6715 28.9185H21.3236C21.1212 28.9185 20.9621 28.7594 20.9621 28.5571V15.5462C20.9621 15.3438 21.1212 15.1848 21.3236 15.1848H38.6715C38.8739 15.1848 39.033 15.3438 39.033 15.5462Z" fill="white"/>
</svg>
