<svg width="60" height="60" viewBox="0 0 60 60" fill="none" xmlns="http://www.w3.org/2000/svg">
<path d="M27.2518 13.3993C27.4484 13.5045 27.6699 13.5542 27.8926 13.5431C28.1153 13.532 28.3307 13.4604 28.5158 13.3361L32.8532 10.4318C33.0212 10.3193 33.1589 10.1672 33.2541 9.9889C33.3493 9.81058 33.3992 9.61154 33.3992 9.40938C33.3992 9.20722 33.3494 9.00817 33.2542 8.82983C33.159 8.65149 33.0214 8.49935 32.8534 8.38686L28.5158 5.48214C28.3306 5.35817 28.115 5.28684 27.8924 5.27577C27.6698 5.26471 27.4484 5.31432 27.2518 5.4193C27.0551 5.52429 26.8907 5.68071 26.7761 5.87186C26.6614 6.06301 26.6009 6.28171 26.6009 6.5046V12.3138C26.6006 12.5368 26.6611 12.7556 26.7758 12.9469C26.8904 13.1381 27.055 13.2945 27.2518 13.3993ZM28.3586 7.49237L31.221 9.4092L28.3586 11.326V7.49237ZM11.4258 21.7047H19.916C20.111 22.4593 20.5512 23.1278 21.1674 23.605C21.7836 24.0823 22.5409 24.3412 23.3203 24.3412C24.0997 24.3412 24.857 24.0823 25.4732 23.605C26.0895 23.1278 26.5296 22.4593 26.7246 21.7047H48.5742C48.8073 21.7047 49.0309 21.6121 49.1957 21.4473C49.3605 21.2825 49.4531 21.0589 49.4531 20.8258C49.4531 20.5927 49.3605 20.3692 49.1957 20.2043C49.0309 20.0395 48.8073 19.9469 48.5742 19.9469H26.7248C26.53 19.1921 26.0899 18.5234 25.4736 18.046C24.8573 17.5686 24.0999 17.3095 23.3203 17.3095C22.5407 17.3095 21.7833 17.5686 21.167 18.046C20.5507 18.5234 20.1106 19.1921 19.9158 19.9469H11.4258C11.1927 19.9469 10.9691 20.0395 10.8043 20.2043C10.6395 20.3692 10.5469 20.5927 10.5469 20.8258C10.5469 21.0589 10.6395 21.2825 10.8043 21.4473C10.9691 21.6121 11.1927 21.7047 11.4258 21.7047ZM23.3203 19.0674C23.668 19.0674 24.0078 19.1705 24.2969 19.3637C24.586 19.5568 24.8113 19.8314 24.9443 20.1525C25.0774 20.4737 25.1122 20.8272 25.0443 21.1682C24.9765 21.5091 24.8091 21.8224 24.5633 22.0682C24.3174 22.314 24.0042 22.4814 23.6632 22.5493C23.3223 22.6171 22.9688 22.5823 22.6476 22.4492C22.3264 22.3162 22.0519 22.0909 21.8587 21.8018C21.6656 21.5127 21.5625 21.1729 21.5625 20.8252C21.563 20.3592 21.7484 19.9124 22.0779 19.5828C22.4074 19.2533 22.8543 19.0679 23.3203 19.0674ZM54.1843 47.8249L52.1296 47.4335C53.0028 46.8471 53.7184 46.055 54.2133 45.1268C54.7082 44.1987 54.9672 43.1631 54.9675 42.1112V32.2511C54.9675 32.018 54.8749 31.7945 54.7101 31.6296C54.5452 31.4648 54.3217 31.3722 54.0886 31.3722H44.7734C44.0747 31.373 43.4049 31.6509 42.9109 32.1449C42.4169 32.6389 42.139 33.3087 42.1382 34.0074V42.1112C42.1385 43.1631 42.3975 44.1987 42.8924 45.1269C43.3873 46.055 44.103 46.8472 44.9762 47.4335L42.9214 47.8249C41.5461 48.0866 40.278 48.7466 39.2746 49.7229C38.2727 48.7466 37.0057 48.0865 35.6314 47.8249L33.5767 47.4335C34.4499 46.8471 35.1655 46.055 35.6604 45.1268C36.1553 44.1987 36.4143 43.1631 36.4146 42.1112V32.2511C36.4146 32.018 36.322 31.7945 36.1572 31.6296C35.9924 31.4648 35.7688 31.3722 35.5357 31.3722H26.2205C25.5218 31.373 24.852 31.6509 24.358 32.1449C23.864 32.639 23.5862 33.3088 23.5854 34.0074V42.1112C23.5857 43.1631 23.8447 44.1987 24.3396 45.1268C24.8345 46.055 25.5501 46.8471 26.4233 47.4335L24.3686 47.8249C22.994 48.0866 21.7267 48.7469 20.7247 49.7236C19.7207 48.7484 18.4532 48.0884 17.0786 47.8249L15.0239 47.4335C15.8971 46.8471 16.6127 46.055 17.1076 45.1268C17.6025 44.1987 17.8615 43.1631 17.8618 42.1112V32.2511C17.8618 32.018 17.7692 31.7945 17.6044 31.6296C17.4396 31.4648 17.216 31.3722 16.9829 31.3722H7.66758C6.96892 31.373 6.2991 31.6509 5.80507 32.1449C5.31104 32.6389 5.03316 33.3087 5.03238 34.0074V42.1112C5.03271 43.1631 5.29174 44.1987 5.78666 45.1269C6.28158 46.055 6.99719 46.8472 7.87043 47.4335L5.81555 47.8249C4.18043 48.1378 2.7054 49.0106 1.64406 50.2932C0.582723 51.5758 0.00138667 53.1881 0 54.8529V59.1211C0 59.3542 0.0925988 59.5777 0.257426 59.7426C0.422253 59.9074 0.645806 60 0.878906 60H59.1211C59.3542 60 59.5777 59.9074 59.7426 59.7426C59.9074 59.5777 60 59.3542 60 59.1211V54.8529C59.9986 53.1881 59.4172 51.5758 58.3559 50.2933C57.2945 49.0107 55.8195 48.1378 54.1843 47.8249ZM43.896 34.0074C43.8962 33.7748 43.9887 33.5517 44.1532 33.3872C44.3177 33.2227 44.5407 33.1301 44.7734 33.1299H53.2097V37.4545H43.896V34.0074ZM43.896 42.1112V39.2123H53.2097V42.1112C53.2083 43.3458 52.7174 44.5293 51.8445 45.4023C50.9716 46.2753 49.7881 46.7665 48.5536 46.768H48.5521C47.3176 46.7664 46.1341 46.2753 45.2612 45.4023C44.3884 44.5293 43.8974 43.3458 43.896 42.1112ZM25.3432 34.0074C25.3434 33.7748 25.4359 33.5517 25.6004 33.3872C25.7648 33.2227 25.9879 33.1302 26.2205 33.1299H34.6568V37.4545H25.3432V34.0074ZM25.3432 42.1112V39.2123H34.6568V42.1112C34.6554 43.3457 34.1644 44.5293 33.2916 45.4023C32.4188 46.2752 31.2353 46.7664 30.0008 46.768H29.9992C28.7647 46.7664 27.5812 46.2752 26.7084 45.4023C25.8356 44.5293 25.3446 43.3457 25.3432 42.1112ZM6.79031 34.0075C6.79053 33.7749 6.88303 33.5518 7.04752 33.3873C7.21202 33.2228 7.43505 33.1303 7.6677 33.13H16.104V37.4546H6.79031V34.0075ZM6.79031 42.1114V39.2124H16.104V42.1114C16.1026 43.3459 15.6117 44.5294 14.7388 45.4024C13.8659 46.2754 12.6824 46.7666 11.4479 46.7682H11.4464C10.2119 46.7666 9.02839 46.2755 8.15551 45.4025C7.28264 44.5294 6.79168 43.3459 6.79031 42.1114ZM18.5528 54.8529V58.2422H1.75781V54.8529C1.75889 53.5971 2.19742 52.381 2.99801 51.4135C3.7986 50.446 4.91122 49.7877 6.14461 49.5517L11.4472 48.5418L16.7497 49.5517C17.8427 49.7611 18.8445 50.3025 19.6185 51.1021C18.9215 52.229 18.5525 53.5279 18.5528 54.8529ZM39.6894 58.2422H20.3106V54.8529C20.3117 53.5971 20.7502 52.381 21.5508 51.4135C22.3514 50.446 23.4641 49.7877 24.6975 49.5517L30 48.5418L35.3025 49.5517C36.5359 49.7877 37.6486 50.446 38.4492 51.4135C39.2498 52.381 39.6883 53.5971 39.6894 54.8529V58.2422ZM58.2422 58.2422H41.4472V54.8529C41.4475 53.528 41.0785 52.2293 40.3818 51.1024C41.1548 50.3017 42.1569 49.76 43.2503 49.5517L48.5528 48.5418L53.8555 49.5517C55.0889 49.7877 56.2015 50.4461 57.002 51.4135C57.8026 52.381 58.2411 53.5971 58.2422 54.8529V58.2422ZM9.66797 27.8567H50.332C51.4971 27.8554 52.6141 27.392 53.438 26.5681C54.2618 25.7443 54.7253 24.6273 54.7266 23.4622V4.39452C54.7253 3.22942 54.2618 2.11242 53.438 1.28856C52.6141 0.464714 51.4971 0.00130272 50.332 0H9.66797C8.50287 0.00130272 7.38586 0.464714 6.562 1.28856C5.73815 2.11242 5.27474 3.22942 5.27344 4.39452V23.4621C5.27474 24.6272 5.73815 25.7442 6.562 26.568C7.38586 27.3919 8.50287 27.8554 9.66797 27.8567ZM7.03125 4.39452C7.03206 3.69547 7.31011 3.02528 7.80442 2.53098C8.29872 2.03667 8.96891 1.75862 9.66797 1.75781H50.332C51.0311 1.75862 51.7013 2.03667 52.1956 2.53098C52.6899 3.02528 52.9679 3.69547 52.9688 4.39452V23.4621C52.9679 24.1611 52.6899 24.8313 52.1956 25.3256C51.7013 25.8199 51.0311 26.098 50.332 26.0988H9.66797C8.96891 26.098 8.29872 25.8199 7.80442 25.3256C7.31011 24.8313 7.03206 24.1611 7.03125 23.4621V4.39452Z" fill="white"/>
</svg>
