<svg width="65" height="65" viewBox="0 0 65 65" fill="none" xmlns="http://www.w3.org/2000/svg">
<path d="M58.2288 13.2032C57.5977 13.2034 56.9712 13.3112 56.3763 13.5221C55.8622 12.5206 55.0849 11.678 54.128 11.085C53.171 10.492 52.0705 10.1709 50.9448 10.1564C49.9613 10.1621 48.9938 10.4061 48.1253 10.8676C47.2568 11.3291 46.5132 11.9943 45.958 12.8061C45.0757 12.3202 44.0671 12.1124 43.0645 12.21C42.449 12.2685 41.8493 12.4382 41.2943 12.7107C40.7374 11.6461 39.9028 10.7522 38.8789 10.1237C37.855 9.49515 36.6801 9.1555 35.4788 9.14074C33.9969 9.14621 32.5621 9.66236 31.4163 10.6022C31.2717 9.8432 30.8509 9.16472 30.2352 8.69793L18.8409 1.1823C18.675 1.0731 18.4808 1.01489 18.2823 1.01489C18.0837 1.01489 17.8895 1.0731 17.7237 1.1823L6.26742 8.7416C5.89857 9.02722 5.59973 9.39321 5.39364 9.81172C5.18755 10.2302 5.07964 10.6903 5.07812 11.1568V13.2032C5.07812 14.0113 5.39913 14.7863 5.97053 15.3577C6.54193 15.9291 7.31692 16.2501 8.125 16.2501C8.47177 16.2467 8.81536 16.1835 9.14062 16.0632V21.4095C7.45002 21.6535 5.90378 22.4981 4.78479 23.7886C3.6658 25.0792 3.04888 26.7295 3.04688 28.4376V52.9243C1.74486 54.2495 1.0154 56.033 1.01563 57.8907V62.9689C1.01563 63.2382 1.12263 63.4966 1.31309 63.687C1.50356 63.8775 1.76189 63.9845 2.03125 63.9845H62.9688C63.2381 63.9845 63.4964 63.8775 63.6869 63.687C63.8774 63.4966 63.9844 63.2382 63.9844 62.9689V19.2178C64.0163 17.6577 63.4283 16.1485 62.3495 15.0211C61.2706 13.8937 59.7888 13.24 58.2288 13.2032ZM8.125 14.2189C7.85564 14.2189 7.59731 14.1119 7.40684 13.9214C7.21638 13.7309 7.10938 13.4726 7.10938 13.2032V11.1568C7.108 11.0129 7.13738 10.8705 7.19553 10.7389C7.25368 10.6074 7.33927 10.4898 7.44656 10.394L18.2812 3.25012L29.056 10.3534C29.1792 10.4485 29.279 10.5705 29.3478 10.7101C29.4166 10.8497 29.4526 11.0032 29.4531 11.1588V13.2032C29.4531 13.4726 29.3461 13.7309 29.1557 13.9214C28.9652 14.1119 28.7069 14.2189 28.4375 14.2189C28.1681 14.2189 27.9098 14.1119 27.7193 13.9214C27.5289 13.7309 27.4219 13.4726 27.4219 13.2032V12.1876C27.4219 12.0154 27.3781 11.8459 27.2946 11.6953C27.2111 11.5446 27.0906 11.4177 26.9445 11.3264L18.8195 6.24824C18.6581 6.14736 18.4716 6.09386 18.2812 6.09386C18.0909 6.09386 17.9044 6.14736 17.743 6.24824L9.61797 11.3264C9.4719 11.4177 9.35144 11.5446 9.26794 11.6953C9.18444 11.8459 9.14062 12.0154 9.14062 12.1876V13.2032C9.14062 13.4726 9.03362 13.7309 8.84315 13.9214C8.65269 14.1119 8.39436 14.2189 8.125 14.2189ZM20.3125 21.3282H16.25V16.2501C16.25 15.7114 16.464 15.1947 16.8449 14.8138C17.2259 14.4329 17.7425 14.2189 18.2812 14.2189C18.82 14.2189 19.3366 14.4329 19.7176 14.8138C20.0985 15.1947 20.3125 15.7114 20.3125 16.2501V21.3282ZM18.2812 12.1876C17.2038 12.1876 16.1705 12.6156 15.4086 13.3775C14.6468 14.1394 14.2187 15.1727 14.2187 16.2501V21.3282H11.1719V12.7503L18.2812 8.30691L25.3906 12.7503V21.3282H22.3438V16.2501C22.3438 15.1727 21.9157 14.1394 21.1539 13.3775C20.392 12.6156 19.3587 12.1876 18.2812 12.1876ZM10.1562 23.3595H29.383C31.8349 23.392 34.2593 23.881 36.532 24.8017L34.7039 26.0072C34.3352 26.2929 34.0366 26.659 33.8307 27.0775C33.6248 27.496 33.517 27.956 33.5156 28.4224V30.4689C33.5156 31.2769 33.8366 32.0519 34.408 32.6233C34.9794 33.1947 35.7544 33.5157 36.5625 33.5157C36.9093 33.5124 37.2529 33.4492 37.5781 33.3289V35.9086C35.3444 36.8141 33.2543 38.0399 31.3737 39.5475L18.8703 30.6568C18.6983 30.5343 18.4924 30.4685 18.2812 30.4685C18.0701 30.4685 17.8642 30.5343 17.6922 30.6568L5.07812 39.6268V28.4376C5.07974 27.0913 5.61527 25.8006 6.56725 24.8486C7.51924 23.8966 8.80994 23.3611 10.1562 23.3595ZM48.75 39.6095H44.6875V34.5314C44.6875 33.9926 44.9015 33.476 45.2824 33.0951C45.6634 32.7141 46.18 32.5001 46.7188 32.5001C47.2575 32.5001 47.7741 32.7141 48.1551 33.0951C48.536 33.476 48.75 33.9926 48.75 34.5314V39.6095ZM46.7188 30.4689C45.6413 30.4689 44.608 30.8969 43.8461 31.6587C43.0843 32.4206 42.6562 33.4539 42.6562 34.5314V39.6095H39.6094V30.0159L46.7188 25.5725L53.8281 30.0159V39.6095H50.7812V34.5314C50.7812 33.4539 50.3532 32.4206 49.5914 31.6587C48.8295 30.8969 47.7962 30.4689 46.7188 30.4689ZM55.382 28.592L47.257 23.5139C47.0956 23.413 46.9091 23.3595 46.7188 23.3595C46.5284 23.3595 46.3419 23.413 46.1805 23.5139L38.0555 28.592C37.9094 28.6833 37.7889 28.8102 37.7054 28.9609C37.6219 29.1116 37.5781 29.281 37.5781 29.4532V30.4689C37.5781 30.7382 37.4711 30.9966 37.2807 31.187C37.0902 31.3775 36.8319 31.4845 36.5625 31.4845C36.2931 31.4845 36.0348 31.3775 35.8443 31.187C35.6539 30.9966 35.5469 30.7382 35.5469 30.4689V28.4224C35.5455 28.2786 35.5749 28.1361 35.633 28.0046C35.6912 27.873 35.7768 27.7554 35.8841 27.6596L46.7188 20.5157L57.4935 27.619C57.6167 27.7142 57.7165 27.8362 57.7853 27.9758C57.8541 28.1153 57.8901 28.2688 57.8906 28.4244V30.4689C57.8906 30.7382 57.7836 30.9966 57.5932 31.187C57.4027 31.3775 57.1444 31.4845 56.875 31.4845C56.6056 31.4845 56.3473 31.3775 56.1568 31.187C55.9664 30.9966 55.8594 30.7382 55.8594 30.4689V29.4532C55.8594 29.281 55.8156 29.1116 55.7321 28.9609C55.6486 28.8102 55.5281 28.6833 55.382 28.592ZM5.07812 42.6411C5.07773 42.4918 5.1103 42.3441 5.1735 42.2088C5.23669 42.0734 5.32897 41.9537 5.44375 41.8581L18.2812 32.7307L31.0873 41.8357C31.2104 41.9309 31.3102 42.0529 31.379 42.1925C31.4479 42.3321 31.4839 42.4855 31.4844 42.6411V44.6876C31.4844 44.957 31.3774 45.2153 31.1869 45.4058C30.9964 45.5962 30.7381 45.7032 30.4688 45.7032C30.1994 45.7032 29.9411 45.5962 29.7506 45.4058C29.5601 45.2153 29.4531 44.957 29.4531 44.6876V43.672C29.453 43.5087 29.4136 43.3478 29.3381 43.203C29.2626 43.0582 29.1533 42.9338 29.0195 42.8402L18.8632 35.7308C18.6926 35.6115 18.4894 35.5476 18.2812 35.5476C18.0731 35.5476 17.8699 35.6115 17.6993 35.7308L7.54305 42.8402C7.40921 42.9338 7.29992 43.0582 7.22442 43.203C7.14893 43.3478 7.10947 43.5087 7.10938 43.672V44.6876C7.10938 44.957 7.00237 45.2153 6.8119 45.4058C6.62144 45.5962 6.36311 45.7032 6.09375 45.7032C5.82439 45.7032 5.56606 45.5962 5.37559 45.4058C5.18513 45.2153 5.07812 44.957 5.07812 44.6876V42.6411ZM21.3281 55.8595H15.2344V48.7501C15.2344 47.942 15.5554 47.167 16.1268 46.5956C16.6982 46.0243 17.4732 45.7032 18.2812 45.7032C19.0893 45.7032 19.8643 46.0243 20.4357 46.5956C21.0071 47.167 21.3281 47.942 21.3281 48.7501V55.8595ZM18.2812 43.672C16.9349 43.6736 15.6442 44.2091 14.6923 45.1611C13.7403 46.1131 13.2047 47.4038 13.2031 48.7501V55.8595H9.14062V44.2011L18.2812 37.8027L27.4219 44.2011V55.8595H23.3594V48.7501C23.3578 47.4038 22.8222 46.1131 21.8702 45.1611C20.9183 44.2091 19.6276 43.6736 18.2812 43.672ZM7.10938 50.8626C6.40515 50.9637 5.7203 51.1709 5.07812 51.4771V47.5476C5.73228 47.7968 6.45522 47.7968 7.10938 47.5476V50.8626ZM3.04688 57.8907C3.04835 56.7205 3.45322 55.5866 4.19323 54.6801C4.93324 53.7736 5.96315 53.1499 7.10938 52.9142V56.8751C7.10938 57.1445 7.21638 57.4028 7.40684 57.5933C7.59731 57.7837 7.85564 57.8907 8.125 57.8907H28.4375C28.7069 57.8907 28.9652 57.7837 29.1557 57.5933C29.3461 57.4028 29.4531 57.1445 29.4531 56.8751V52.8126C30.2612 52.8126 31.0362 53.1336 31.6076 53.705C32.179 54.2764 32.5 55.0514 32.5 55.8595V61.9532H3.04688V57.8907ZM61.9531 61.9532H34.5312V59.922C34.5097 58.8662 34.9009 57.8437 35.6216 57.0719C36.3424 56.3001 37.3358 55.84 38.3906 55.7894C38.6802 55.7975 38.9684 55.8315 39.2519 55.891C39.5141 55.9344 39.7831 55.8788 40.0066 55.7351C40.2301 55.5913 40.3923 55.3696 40.4615 55.113C40.7201 53.9132 41.3729 52.8345 42.3157 52.0488C43.2586 51.263 44.4373 50.8155 45.664 50.7774C46.8908 50.7393 48.095 51.1129 49.0848 51.8386C50.0746 52.5644 50.793 53.6005 51.1255 54.7819C51.1732 54.9233 51.2515 55.0524 51.3547 55.1601C51.458 55.2678 51.5837 55.3515 51.7229 55.4051C51.8622 55.4587 52.0115 55.481 52.1603 55.4704C52.3091 55.4597 52.4538 55.4164 52.584 55.3436L52.78 55.2339C53.4258 54.9073 54.1564 54.7872 54.8727 54.8898C55.5891 54.9925 56.2565 55.3129 56.7846 55.8077C56.9116 55.9257 57.0667 56.0092 57.2351 56.0503C57.4035 56.0914 57.5796 56.0887 57.7467 56.0424C57.9137 55.9962 58.0662 55.908 58.1895 55.7862C58.3128 55.6644 58.4029 55.5131 58.4512 55.3466C58.6827 54.5179 59.1282 53.7648 59.7429 53.1627C60.3576 52.5607 61.1198 52.131 61.9531 51.9168V61.9532ZM61.9531 49.8531C60.9031 50.0334 59.9095 50.456 59.0513 51.0874C58.1931 51.7187 57.4939 52.5413 57.0091 53.49C56.3431 53.1264 55.6091 52.9042 54.8533 52.8374C54.0974 52.7707 53.3359 52.8608 52.6165 53.1021C52.0051 51.8165 51.0463 50.7277 49.8485 49.9586C48.6507 49.1896 47.2615 48.771 45.8382 48.7501C44.2923 48.7832 42.7919 49.2798 41.5315 50.1757C40.2711 51.0715 39.3089 52.3252 38.7695 53.7744C38.6395 53.7643 38.5094 53.7582 38.3855 53.7582C36.9268 53.7736 35.5295 54.3479 34.4815 55.3629C34.3608 54.1116 33.7794 52.9498 32.8502 52.1031C31.9209 51.2565 30.7102 50.7854 29.4531 50.7814V47.5476C29.7784 47.6679 30.122 47.7311 30.4688 47.7345C31.2768 47.7345 32.0518 47.4135 32.6232 46.8421C33.1946 46.2707 33.5156 45.4957 33.5156 44.6876V42.6411C33.5084 42.0093 33.3043 41.3954 32.9316 40.8851C34.3647 39.7883 35.9248 38.8683 37.5781 38.145V40.6251C37.5781 40.8945 37.6851 41.1528 37.8756 41.3433C38.0661 41.5337 38.3244 41.6407 38.5938 41.6407H54.8438C55.1131 41.6407 55.3714 41.5337 55.5619 41.3433C55.7524 41.1528 55.8594 40.8945 55.8594 40.6251V38.2892C59.7015 40.6139 61.9531 43.6882 61.9531 46.7189V49.8531ZM55.8594 35.9532V33.3289C56.1846 33.4492 56.5282 33.5124 56.875 33.5157C57.6831 33.5157 58.4581 33.1947 59.0295 32.6233C59.6009 32.0519 59.9219 31.2769 59.9219 30.4689V28.4224C59.9177 27.9439 59.8027 27.4729 59.586 27.0463C59.3693 26.6197 59.0566 26.2491 58.6727 25.9636L47.2784 18.4479C47.1125 18.3387 46.9183 18.2805 46.7198 18.2805C46.5212 18.2805 46.327 18.3387 46.1612 18.4479L38.5318 23.4824C35.681 22.0912 32.5551 21.3552 29.383 21.3282H27.4219V16.0632C27.7471 16.1835 28.0907 16.2467 28.4375 16.2501C29.1536 16.2483 29.8461 15.9944 30.3937 15.5329C30.9412 15.0714 31.3086 14.4317 31.4316 13.7263C31.8086 12.9715 32.3851 12.3344 33.0986 11.8841C33.8121 11.4338 34.6353 11.1875 35.4788 11.172C36.4729 11.1982 37.4334 11.5375 38.2234 12.1414C39.0133 12.7454 39.5926 13.5833 39.8785 14.5357C39.9283 14.6874 40.0131 14.8252 40.1261 14.9379C40.2391 15.0507 40.377 15.1352 40.5287 15.1846C40.6805 15.2341 40.8418 15.2471 40.9995 15.2226C41.1572 15.1981 41.3069 15.1367 41.4365 15.0436L41.5777 14.942C42.0535 14.5433 42.6387 14.2976 43.2565 14.2371C43.6796 14.1992 44.106 14.2502 44.5083 14.3868C44.9106 14.5234 45.2799 14.7426 45.5924 15.0303C45.7142 15.1322 45.8579 15.2045 46.0122 15.2416C46.1665 15.2788 46.3273 15.2798 46.4821 15.2446C46.64 15.2087 46.7877 15.1375 46.9141 15.0363C47.0406 14.9352 47.1425 14.8068 47.2123 14.6607C47.5343 13.9358 48.0567 13.3179 48.7179 12.8798C49.3791 12.4417 50.1517 12.2015 50.9448 12.1876C51.8387 12.212 52.7022 12.5181 53.4119 13.0621C54.1217 13.6061 54.6417 14.3603 54.8976 15.2172C54.9487 15.3689 55.0349 15.5064 55.1492 15.6184C55.2635 15.7304 55.4027 15.8138 55.5553 15.8618C55.708 15.9099 55.8699 15.9211 56.0277 15.8947C56.1856 15.8683 56.335 15.8049 56.4637 15.7098C57.0002 15.3994 57.609 15.2355 58.2288 15.2345C59.2506 15.2697 60.2167 15.709 60.9149 16.4558C61.6132 17.2026 61.9866 18.1959 61.9531 19.2178V41.0182C60.3229 38.8986 58.2413 37.1684 55.8594 35.9532Z" fill="white"/>
<path d="M57.8906 47.7344H55.8594V49.7656H57.8906V47.7344Z" fill="white"/>
<path d="M55.8594 43.6719H53.8281V45.7031H55.8594V43.6719Z" fill="white"/>
<path d="M53.8281 47.7344H51.7969V49.7656H53.8281V47.7344Z" fill="white"/>
<path d="M13.2031 29.4531H11.1719V31.4844H13.2031V29.4531Z" fill="white"/>
<path d="M11.1719 25.3906H9.14062V27.4219H11.1719V25.3906Z" fill="white"/>
<path d="M9.14062 29.4531H7.10938V31.4844H9.14062V29.4531Z" fill="white"/>
</svg>
