<svg width="40" height="40" viewBox="0 0 40 40" fill="none" xmlns="http://www.w3.org/2000/svg">
<g clip-path="url(#clip0_226_460)">
<path d="M20 0.625C16.168 0.625 12.422 1.76132 9.23584 3.89028C6.04963 6.01923 3.56629 9.04519 2.09984 12.5855C0.633395 16.1258 0.249705 20.0215 0.997294 23.7799C1.74488 27.5383 3.59017 30.9905 6.29981 33.7002C9.00946 36.4098 12.4618 38.2551 16.2201 39.0027C19.9785 39.7503 23.8742 39.3666 27.4145 37.9002C30.9548 36.4337 33.9808 33.9504 36.1097 30.7642C38.2387 27.578 39.375 23.832 39.375 20C39.375 14.8614 37.3337 9.93332 33.7002 6.29981C30.0667 2.66629 25.1386 0.625 20 0.625ZM20 38.125C16.4152 38.125 12.9109 37.062 9.9303 35.0704C6.94966 33.0788 4.62653 30.248 3.25469 26.9361C1.88285 23.6242 1.52392 19.9799 2.22328 16.464C2.92263 12.9481 4.64887 9.71852 7.1837 7.18369C9.71852 4.64886 12.9481 2.92262 16.464 2.22327C19.9799 1.52391 23.6242 1.88285 26.9361 3.25468C30.2481 4.62652 33.0788 6.94965 35.0704 9.93029C37.062 12.9109 38.125 16.4152 38.125 20C38.125 24.807 36.2154 29.4172 32.8163 32.8163C29.4172 36.2154 24.8071 38.125 20 38.125Z" fill="#B66433" fill-opacity="0.95"/>
<path d="M20 2.5C16.5388 2.5 13.1554 3.52636 10.2775 5.44928C7.39967 7.37221 5.15665 10.1053 3.83212 13.303C2.50758 16.5007 2.16102 20.0194 2.83627 23.4141C3.51151 26.8087 5.17822 29.9269 7.62564 32.3744C10.0731 34.8218 13.1913 36.4885 16.5859 37.1637C19.9806 37.839 23.4993 37.4924 26.697 36.1679C29.8947 34.8434 32.6278 32.6003 34.5507 29.7225C36.4737 26.8446 37.5 23.4612 37.5 20C37.5 15.3587 35.6563 10.9075 32.3744 7.62563C29.0925 4.34374 24.6413 2.5 20 2.5ZM20 36.25C16.7861 36.25 13.6443 35.297 10.972 33.5114C8.29969 31.7258 6.21689 29.1879 4.98697 26.2186C3.75704 23.2493 3.43524 19.982 4.06225 16.8298C4.68926 13.6776 6.23692 10.7821 8.50952 8.50951C10.7821 6.23691 13.6776 4.68925 16.8298 4.06224C19.982 3.43523 23.2493 3.75703 26.2186 4.98696C29.1879 6.21688 31.7258 8.29969 33.5114 10.972C35.297 13.6443 36.25 16.7861 36.25 20C36.25 24.3098 34.538 28.443 31.4905 31.4905C28.443 34.538 24.3098 36.25 20 36.25Z" fill="#B66433" fill-opacity="0.95"/>
<path d="M32.2688 13.5187C29.0188 10.2687 28.3063 10.9874 28.075 11.2187L28.0375 11.2624L24.5938 15.4187C23.7718 15.6054 22.9355 15.7225 22.0938 15.7687C21.65 15.7999 21.2063 15.8374 20.725 15.8999L17.875 15.7062C17.4411 15.6367 16.9966 15.7278 16.625 15.9624C16.2463 15.7572 15.8512 15.5837 15.4438 15.4437L11.9625 11.2499H11.925C11.6938 11.0187 10.9813 10.2999 7.73128 13.5499C4.48128 16.7999 5.20003 17.4999 5.46878 17.7499L9.37503 21.1249L9.70628 22.1499C10.5523 24.7328 11.9955 27.0796 13.9188 29L13.9625 29.0437L15.5563 30.6249C15.7867 30.8556 16.0702 31.0263 16.3819 31.122C16.6936 31.2176 17.0239 31.2354 17.3441 31.1737C17.6643 31.112 17.9644 30.9728 18.2182 30.7681C18.4721 30.5635 18.6718 30.2997 18.8 29.9999L19.7188 30.9187C19.9532 31.1533 20.2425 31.3257 20.5604 31.4203C20.8783 31.5149 21.2148 31.5287 21.5394 31.4604C21.864 31.3922 22.1664 31.244 22.4193 31.0294C22.6721 30.8147 22.8674 30.5404 22.9875 30.2312C23.3712 30.4554 23.8176 30.5481 24.2588 30.495C24.7 30.442 25.1117 30.2462 25.4313 29.9375C25.6967 29.6707 25.8815 29.3345 25.9644 28.9674C26.0473 28.6004 26.025 28.2174 25.9 27.8624C26.2141 27.7668 26.4996 27.595 26.7313 27.3624C26.8068 27.2849 26.8757 27.2013 26.9375 27.1124C26.9701 27.0985 27.0015 27.0817 27.0313 27.0624C28.4584 25.722 29.5319 24.0494 30.1563 22.1937L30.475 21.2062L34.5313 17.7187C34.8 17.4999 35.5188 16.7687 32.2688 13.5187ZM29.9063 20.0749L25.775 15.9437L25.9563 15.7249L30.1188 19.8874L29.9063 20.0749ZM14.2188 15.9437L10.0875 20.0749L9.87503 19.8937L14.0375 15.7312L14.2188 15.9437ZM8.59378 14.3999C9.35514 13.5838 10.2259 12.8771 11.1813 12.2999L13.2188 14.7562L8.90628 19.0687L6.51253 16.9999C7.08631 16.031 7.7932 15.1474 8.61253 14.3749L8.59378 14.3999ZM25.85 26.4874C25.7121 26.6171 25.5299 26.6893 25.3407 26.6893C25.1514 26.6893 24.9692 26.6171 24.8313 26.4874L20.625 22.3062C20.569 22.2408 20.5001 22.1876 20.4225 22.1501C20.345 22.1126 20.2605 22.0915 20.1744 22.0882C20.0884 22.0849 20.0025 22.0994 19.9223 22.1308C19.8421 22.1622 19.7693 22.2099 19.7084 22.2708C19.6475 22.3317 19.5998 22.4045 19.5684 22.4847C19.537 22.565 19.5225 22.6508 19.5258 22.7369C19.5291 22.8229 19.5502 22.9074 19.5877 22.9849C19.6252 23.0625 19.6784 23.1314 19.7438 23.1874L24.5625 28.0062C24.7015 28.1456 24.7795 28.3344 24.7795 28.5312C24.7795 28.728 24.7015 28.9168 24.5625 29.0562C24.4208 29.1907 24.2329 29.2657 24.0375 29.2657C23.8422 29.2657 23.6542 29.1907 23.5125 29.0562L18.6938 24.2374C18.5742 24.1351 18.4204 24.0816 18.2631 24.0876C18.1058 24.0937 17.9566 24.1589 17.8453 24.2702C17.734 24.3815 17.6688 24.5307 17.6627 24.688C17.6566 24.8453 17.7101 24.9991 17.8125 25.1187L21.6813 28.9874C21.8205 29.1275 21.8984 29.3172 21.8978 29.5147C21.8972 29.7122 21.8182 29.9013 21.6782 30.0406C21.5381 30.1798 21.3484 30.2577 21.1509 30.2571C20.9535 30.2565 20.7643 30.1775 20.625 30.0374L16.7625 26.1749C16.7065 26.1095 16.6376 26.0564 16.56 26.0189C16.4825 25.9814 16.398 25.9603 16.3119 25.9569C16.2259 25.9536 16.14 25.9681 16.0598 25.9995C15.9796 26.031 15.9068 26.0786 15.8459 26.1395C15.785 26.2005 15.7373 26.2733 15.7059 26.3535C15.6745 26.4337 15.66 26.5195 15.6633 26.6056C15.6666 26.6917 15.6877 26.7761 15.7252 26.8537C15.7627 26.9312 15.8159 27.0002 15.8813 27.0562L17.5 28.6937C17.6401 28.8346 17.7185 29.0254 17.7179 29.224C17.7173 29.4227 17.6378 29.613 17.4969 29.7531C17.356 29.8931 17.1652 29.9715 16.9666 29.9709C16.7679 29.9703 16.5776 29.8908 16.4375 29.7499L14.7563 28.0749C13.0004 26.303 11.6822 24.1458 10.9063 21.7749L10.7188 21.2062L15.225 16.6999C15.3875 16.7624 15.5813 16.8437 15.85 16.9749C15.85 17.0312 15.7188 17.5124 15.7188 17.5124C15.6304 17.982 15.7303 18.4675 15.997 18.8639C16.2636 19.2604 16.6756 19.536 17.1438 19.6312H17.2063L20.4188 19.9437L25.85 25.4249C25.9207 25.4942 25.9769 25.5769 26.0152 25.6681C26.0535 25.7593 26.0733 25.8573 26.0733 25.9562C26.0733 26.0551 26.0535 26.1531 26.0152 26.2443C25.9769 26.3355 25.9207 26.4182 25.85 26.4874ZM27.15 25.1624C27.0536 24.9297 26.9136 24.7176 26.7375 24.5374L21.15 18.9124C21.0518 18.8157 20.9244 18.7542 20.7875 18.7374L17.3875 18.4062C17.2536 18.3709 17.1372 18.2879 17.0601 18.1728C16.983 18.0578 16.9505 17.9185 16.9688 17.7812L17.0438 17.4124C17.0739 17.2739 17.1547 17.1516 17.2703 17.0695C17.3859 16.9874 17.528 16.9514 17.6688 16.9687L20.7063 17.1812C20.7644 17.1889 20.8232 17.1889 20.8813 17.1812C21.3375 17.1249 21.7625 17.0874 22.1875 17.0562C23.0452 17.005 23.8978 16.888 24.7375 16.7062L29.2188 21.1875L29 21.8125C28.5701 23.0225 27.9452 24.1541 27.15 25.1624ZM31.075 19.0749L26.7625 14.7624L28.8 12.3062C29.7534 12.8737 30.6241 13.5698 31.3875 14.3749C32.2045 15.1379 32.9113 16.0108 33.4875 16.9687L31.075 19.0749Z" fill="#B66433" fill-opacity="0.95"/>
</g>
<defs>
<clipPath id="clip0_226_460">
<rect width="40" height="40" fill="white"/>
</clipPath>
</defs>
</svg>
