<svg width="1363" height="6" viewBox="0 0 1363 6" fill="none" xmlns="http://www.w3.org/2000/svg">
<path d="M0.333333 3C0.333333 4.47276 1.52724 5.66667 3 5.66667C4.47276 5.66667 5.66667 4.47276 5.66667 3C5.66667 1.52724 4.47276 0.333333 3 0.333333C1.52724 0.333333 0.333333 1.52724 0.333333 3ZM1357.33 3C1357.33 4.47276 1358.53 5.66667 1360 5.66667C1361.47 5.66667 1362.67 4.47276 1362.67 3C1362.67 1.52724 1361.47 0.333333 1360 0.333333C1358.53 0.333333 1357.33 1.52724 1357.33 3ZM3 3.5H1360V2.5H3V3.5Z" fill="#4F4F4F"/>
</svg>
