<svg width="40" height="40" viewBox="0 0 40 40" fill="none" xmlns="http://www.w3.org/2000/svg">
<path d="M20.963 39.7016C21.0255 39.7016 21.0881 39.7016 21.1507 39.6419C31.3507 36.3583 38.1715 27.2837 38.1715 17.015V6.56727C38.1715 6.20906 37.9212 5.97026 37.5458 5.97026C27.7212 5.97026 21.7765 0.656826 21.3384 0.41802C21.0881 0.238915 20.8378 0.238915 20.5875 0.41802C20.1495 0.656826 14.1421 5.97026 4.38016 5.97026C4.0047 5.97026 3.75439 6.20906 3.75439 6.56727V17.015C3.75439 27.2837 10.5752 36.3583 20.7752 39.7016C20.8378 39.7016 20.9004 39.7016 20.963 39.7016ZM5.00593 17.015V7.16429C14.6427 6.92548 20.6501 1.79115 20.963 1.61205C21.3384 1.79115 27.2206 6.92548 36.92 7.16429V17.015C36.92 26.6867 30.5372 35.2837 20.963 38.5076C11.3887 35.2837 5.00593 26.6867 5.00593 17.015Z" fill="#B66433" fill-opacity="0.95"/>
<path d="M21.2134 36.4775C29.5987 33.3134 35.0429 25.6716 35.0429 17.0149V9.43277C35.0429 9.13426 34.7926 8.89546 34.4797 8.83576C29.7238 8.35814 25.1558 6.7462 21.276 4.11934C21.0883 3.99993 20.7754 3.99993 20.5877 4.11934C16.7079 6.6865 12.1398 8.29844 7.38399 8.83576C7.07111 8.89546 6.8208 9.13426 6.8208 9.43277V17.0149C6.8208 25.6716 12.265 33.3134 20.7128 36.4775C20.7754 36.4775 20.838 36.5372 20.9631 36.5372C21.0883 36.5372 21.0883 36.5372 21.2134 36.4775ZM8.13491 17.0149V9.91038C12.703 9.37307 17.1459 7.76113 20.9631 5.31337C24.7803 7.76113 29.2232 9.37307 33.7913 9.91038V16.9552C33.7913 25.0746 28.7852 32.2387 20.9631 35.2835C13.141 32.2387 8.13491 25.0746 8.13491 17.0149Z" fill="#B66433" fill-opacity="0.95"/>
<path d="M28.4098 15.3432C28.1595 15.1044 27.7841 15.1044 27.5338 15.3432L18.2724 24.1193L14.5804 20.5969C14.3301 20.3581 13.9546 20.3581 13.7043 20.5969C13.454 20.8357 13.454 21.1939 13.7043 21.4327L17.8344 25.373C17.9595 25.4924 18.0847 25.5521 18.2724 25.5521C18.4602 25.5521 18.5853 25.4924 18.7105 25.373L28.4098 16.1193C28.6601 15.9402 28.6601 15.582 28.4098 15.3432Z" fill="#B66433" fill-opacity="0.95"/>
</svg>
